<?xml version="1.0" encoding="utf-8"?>
<!-- Generator: Adobe Illustrator 18.1.1, SVG Export Plug-In . SVG Version: 6.00 Build 0)  -->
<!DOCTYPE svg PUBLIC "-//W3C//DTD SVG 1.1//EN" "http://www.w3.org/Graphics/SVG/1.1/DTD/svg11.dtd">
<svg version="1.1" id="Layer_2" xmlns="http://www.w3.org/2000/svg" xmlns:xlink="http://www.w3.org/1999/xlink" x="0px" y="0px"
	 viewBox="0 0 229.7 178.8" enable-background="new 0 0 229.7 178.8" xml:space="preserve">
<g>
	<path fill="#CBD0D4" d="M129.2,0c0,0-29.2,1.7-22.1,15.2c3.6,4.6-3.7,20.1-0.6,22.1c0,0-1.1,43.8-0.5,46s3.4-23.1-0.1-17.3
		c-0.2,0.3,3.2,23.9,3.2,23.9S127.7,13.5,129.2,0z"/>
	<polygon fill="#CBD0D4" points="70.1,78.2 33.6,74.1 53.3,105.6 0,53.6 	"/>
	<path fill="#9B775A" d="M212.8,178.8c0,0,2.7-0.5,4.2-3.5s0-5.3,0-5.3L53.2,79.8l-12.5-1.3l7.3,11.3L212.8,178.8z"/>
	<path fill="#F8EB8E" d="M146.3,33.1c0,0,0.2,1.7-0.3,3.3c-0.5,1.6-1.6,3.4-2,3.7c-0.4,0.4-8.9-11.2-27.8-0.6
		c-2.8,1.6-8.3-1.9-8.5-3.7c-0.2-1.8-2.9-0.9,11-9.3C133.1,20.6,143.1,30.5,146.3,33.1z"/>
	<path fill="#D9CC6B" d="M168.2,6.5c16.3,0.3,59.7,3.3,60.7,53.3s-41,56.3-48.7,56c-7.7-0.3-41.3-3.8-52.1-26.5
		c-11.6-24.6-8.6-45.8,5.4-65.1S168.2,6.5,168.2,6.5z"/>
	<path fill="#F8EB8E" d="M169,6.5c16.3,0.3,59.7,3.3,60.7,53.3s-41,56.3-48.7,56c-7.7-0.3-41.3-3.8-52.1-26.5
		c-11.6-24.6-8.6-45.8,5.4-65.1S169,6.5,169,6.5z"/>
	<path fill="#D9CC6B" d="M166.8,76.6c0,0,1.6,11.7-2,14.4c-4,3-14.9,10.8-20.7,14.8c-2.7,1.9-21.1,17.4-22.3,17.4
		s-9.2-11.6-11.5-11.9c-2.4-0.4-5.8-2.1-7.3,0.1c-1.3,2,4.5,4.3,5.3,5.1c0.8,0.8-9.1,3.6-7.5,7.1c0.9,1.9,1.3,3.7,4.4,0
		c3-3.7,3-2,0,1.5c-3,3.5,2.4,5.2,3.7,3.5c1.3-1.7,6.1-8.5,2.7-0.3c-2,4.8,4.9,3,6.2,2c1.3-1,5.9-7.4,8-8c2-0.7,24.6-11.7,26.8-12.9
		c2.2-1.2,15.8-7.9,18.7-10.2c2.9-2.3,6.9-8,6.4-14s-1.2-10-1.2-10s-1.2-2.2-5.2-1.3C167.2,74.6,166.8,76.6,166.8,76.6z"/>
	<path fill="#F8EB8E" d="M166.8,76.6c0,0,2.3,12.7-1.8,15.3c-4.2,2.7-21,14.7-27.5,17.5c-6.5,2.8-20.5,3.5-21.7,3.5
		s-3.4-2.1-5.6-2.5c-2.3-0.4-5.8-2.1-7.3,0.1c-1.3,2,4.4,4.3,5.3,5.1c0.8,0.8-9,3.6-7.4,7.1c0.9,1.9,1.3,3.7,4.3,0c3-3.7,3-2,0,1.5
		s2.3,5.2,3.7,3.5c1.3-1.7,6-8.5,2.7-0.3c-2,4.8,4.8,3,6.2,2c1.3-1,5.3-6.3,7.3-7c2-0.7,17.8-8,20-9.2c2.2-1.2,22.7-12.7,25.5-15
		c2.8-2.3,6.8-8,6.3-14s-1.2-10-1.2-10s-1.2-2.2-5.2-1.3C166.4,73.8,166.8,76.6,166.8,76.6z"/>
	<polygon fill="#E6F0F5" points="68.8,77.4 32.3,73.2 53.1,104.9 0,52.9 	"/>
	<path fill="#E6F0F5" d="M103.1,83.6c4.1,5.9,6,6.4,6,6.4c-0.6-2.2,9.6-63.1,9.6-63.1c-2.3-1.4-10.7-4.4-12.8-16.5
		c0,0-4.1,37.8-4.1,47.9S103.1,83.6,103.1,83.6z"/>
</g>
</svg>
